<svg xmlns="http://www.w3.org/2000/svg" version="1.1" xmlns:xlink="http://www.w3.org/1999/xlink" xmlns:svgjs="http://svgjs.dev/svgjs" width="1000" height="146" viewBox="0 0 1000 146"><g transform="matrix(1,0,0,1,-0.6060606060606233,-0.03607906892580104)"><svg viewBox="0 0 396 58" data-background-color="#ffffff" preserveAspectRatio="xMidYMid meet" height="146" width="1000" xmlns="http://www.w3.org/2000/svg" xmlns:xlink="http://www.w3.org/1999/xlink"><defs></defs><g id="tight-bounds" transform="matrix(1,0,0,1,0.2400000000000091,0.014332780806142864)"><svg viewBox="0 0 395.52 57.971334438387714" height="57.971334438387714" width="395.52"><g><svg viewBox="0 0 449.84203381583836 65.93331054506089" height="57.971334438387714" width="395.52"><g transform="matrix(1,0,0,1,52.34443381583846,7.78204467472262)"><svg viewBox="0 0 397.4975999999999 50.36922119561565" height="50.36922119561565" width="397.4975999999999"><g><svg viewBox="0 0 397.4975999999999 50.36922119561565" height="50.36922119561565" width="397.4975999999999"><g><rect width="397.4975999999999" height="2.365006477901009" x="0" y="29.011101237737446" fill="#3c2c32" opacity="1" stroke-width="0" stroke="transparent" fill-opacity="1" class="rect-o-0" data-fill-palette-color="primary" rx="1%" id="o-0" data-palette-color="#3c2c32"></rect></g><g transform="matrix(1,0,0,1,0.9887999999999693,0)"><svg viewBox="0 0 395.52 26.22509884230432" height="26.22509884230432" width="395.52"><g transform="matrix(1,0,0,1,0,0)"><svg width="395.52" viewBox="2.640000104904175 -38.400001525878906 588.0899658203125 38.989715576171875" height="26.22509884230432" data-palette-color="#3c2c32"><path d="M14.4-2.34L14.4-2.34Q16.21-2.34 17.69-2.7 19.17-3.05 20.24-3.81L20.24-3.81Q22.53-5.4 22.53-8.45L22.53-8.45Q22.53-11.04 20.85-12.7L20.85-12.7Q19.07-14.4 15.08-16.15 11.08-17.9 9-19.27 6.91-20.65 5.71-22.07L5.71-22.07Q3.54-24.56 3.54-28.1L3.54-28.1Q3.54-32.2 7.08-34.86L7.08-34.86Q10.38-37.38 15.06-37.38L15.06-37.38Q18.75-37.38 22.44-36.04L22.44-36.04Q23.97-35.42 25.22-34.69L25.22-34.69 24.37-28.17 22.31-28.17Q22.31-31.54 20.48-33.07 18.65-34.59 15.19-34.59L15.19-34.59Q10.4-34.59 8.64-31.47L8.64-31.47Q8.08-30.44 8.08-29.17 8.08-27.91 8.45-26.89 8.81-25.88 9.86-24.9L9.86-24.9Q11.91-22.92 17.58-20.56L17.58-20.56Q25.49-17.19 26.81-12.6L26.81-12.6Q27.2-11.16 27.2-9.53 27.2-7.91 26.65-6.46 26.1-5 25.15-3.87 24.19-2.73 22.94-1.9 21.68-1.07 20.26-0.54L20.26-0.54Q13.99 1.9 7.08-0.93L7.08-0.93Q4.57-1.98 2.64-3.49L2.64-3.49 3.66-10.5 5.74-10.5Q5.74-5.59 8.84-3.66L8.84-3.66Q10.96-2.34 14.4-2.34ZM55.12 0L55.12-2.08 58.49-2.64 54.64-12.13 39.99-12.13 36.15-2.64 39.6-2.08 39.6 0 29.12 0 29.12-2.08 32.98-2.64 45.8-34.33 44.77-36.74 48.73-38.4 63.33-2.64 67.26-2.08 67.26 0 55.12 0ZM47.34-30.76L41.14-15.09 53.56-15.09 47.34-30.76ZM91.18 0L76.7-30.71Q76.7-30.71 75.68-2.64L75.68-2.64 79.07-2.08 79.07 0 68.94 0 68.94-2.08 72.41-2.64 74.16-34.18 70.72-34.74 70.72-36.82 79.07-36.82 92.18-8.23 105.39-36.82 113.03-36.82 113.03-34.74 109.37-34.18Q109.76-26.22 110.2-18.33 110.64-10.45 111.01-2.64L111.01-2.64 114.77-2.08 114.77 0 102.83 0 102.83-2.08 106.49-2.64 105.39-30.35 91.18 0ZM121.06-36.82L125.19-36.82 124.48-27.03 121.79-27.03 121.06-36.82ZM143.81-2.34L143.81-2.34Q145.62-2.34 147.1-2.7 148.57-3.05 149.65-3.81L149.65-3.81Q151.94-5.4 151.94-8.45L151.94-8.45Q151.94-11.04 150.26-12.7L150.26-12.7Q148.48-14.4 144.48-16.15 140.49-17.9 138.41-19.27 136.32-20.65 135.12-22.07L135.12-22.07Q132.95-24.56 132.95-28.1L132.95-28.1Q132.95-32.2 136.49-34.86L136.49-34.86Q139.78-37.38 144.47-37.38L144.47-37.38Q148.16-37.38 151.85-36.04L151.85-36.04Q153.38-35.42 154.63-34.69L154.63-34.69 153.77-28.17 151.72-28.17Q151.72-31.54 149.89-33.07 148.06-34.59 144.59-34.59L144.59-34.59Q139.81-34.59 138.05-31.47L138.05-31.47Q137.49-30.44 137.49-29.17 137.49-27.91 137.86-26.89 138.22-25.88 139.27-24.9L139.27-24.9Q141.32-22.92 146.99-20.56L146.99-20.56Q154.9-17.19 156.22-12.6L156.22-12.6Q156.61-11.16 156.61-9.53 156.61-7.91 156.06-6.46 155.51-5 154.56-3.87 153.6-2.73 152.35-1.9 151.09-1.07 149.67-0.54L149.67-0.54Q143.4 1.9 136.49-0.93L136.49-0.93Q133.97-1.98 132.05-3.49L132.05-3.49 133.07-10.5 135.15-10.5Q135.15-5.59 138.25-3.66L138.25-3.66Q140.37-2.34 143.81-2.34ZM189.85-2.34L189.85-2.34Q191.66-2.34 193.14-2.7 194.61-3.05 195.69-3.81L195.69-3.81Q197.98-5.4 197.98-8.45L197.98-8.45Q197.98-11.04 196.3-12.7L196.3-12.7Q194.52-14.4 190.52-16.15 186.53-17.9 184.45-19.27 182.36-20.65 181.16-22.07L181.16-22.07Q178.99-24.56 178.99-28.1L178.99-28.1Q178.99-32.2 182.53-34.86L182.53-34.86Q185.82-37.38 190.51-37.38L190.51-37.38Q194.2-37.38 197.89-36.04L197.89-36.04Q199.42-35.42 200.67-34.69L200.67-34.69 199.81-28.17 197.76-28.17Q197.76-31.54 195.93-33.07 194.1-34.59 190.63-34.59L190.63-34.59Q185.85-34.59 184.09-31.47L184.09-31.47Q183.53-30.44 183.53-29.17 183.53-27.91 183.9-26.89 184.26-25.88 185.31-24.9L185.31-24.9Q187.36-22.92 193.03-20.56L193.03-20.56Q200.94-17.19 202.26-12.6L202.26-12.6Q202.65-11.16 202.65-9.53 202.65-7.91 202.1-6.46 201.55-5 200.6-3.87 199.64-2.73 198.39-1.9 197.13-1.07 195.71-0.54L195.71-0.54Q189.44 1.9 182.53-0.93L182.53-0.93Q180.01-1.98 178.09-3.49L178.09-3.49 179.11-10.5 181.19-10.5Q181.19-5.59 184.29-3.66L184.29-3.66Q186.41-2.34 189.85-2.34ZM224.01 0.56L224.01 0.56Q209.38 0.56 209.38-13.21L209.38-13.21 209.38-34.18 205.6-34.74 205.6-36.82 217.8-36.82 217.8-34.74 213.9-34.18 213.9-13.94Q213.9-4.93 219.64-2.98L219.64-2.98Q221.47-2.37 224.07-2.37 226.67-2.37 228.74-3.03 230.82-3.69 232.18-5.1L232.18-5.1Q234.89-7.91 234.89-13.94L234.89-13.94 234.89-34.18 231.16-34.74 231.16-36.82 241.39-36.82 241.39-34.74 237.7-34.18 237.7-13.21Q237.7-6.62 234.16-3.03 230.62 0.56 224.01 0.56ZM257.13 0L244.02 0 244.02-2.08 247.73-2.64 247.73-34.18 244.02-34.74 244.02-36.82 256.06-36.82Q266.46-36.82 269.34-31.2L269.34-31.2Q270.41-29.13 270.41-26.21 270.41-23.29 269.45-21.04 268.49-18.8 266.58-17.24L266.58-17.24Q262.65-13.96 255.25-13.96L255.25-13.96 252.32-13.96 252.32-2.64 257.13-2.08 257.13 0ZM255.47-33.86L252.32-33.86 252.32-16.55 255.94-16.55Q260.8-16.55 263.36-19.14L263.36-19.14Q265.63-21.48 265.63-25.46L265.63-25.46Q265.63-29.57 263.46-31.59L263.46-31.59Q261.04-33.86 255.47-33.86L255.47-33.86ZM291.48-15.09L290.75-17.65 281.76-17.65 281.76-2.93 295.36-2.93 297.12-7.25 298.98-7.25 298.17 0 273.46 0 273.46-2.08 277.17-2.64 277.17-34.18 273.46-34.74 273.46-36.82 297.1-36.82 297.66-29.57 295.51-29.57 294.19-33.86 281.76-33.86 281.76-20.58 290.75-20.58 291.48-23.17 293.21-23.17 293.21-15.09 291.48-15.09ZM328.39-31.23L328.39-31.23Q329.05-29.54 329.05-27.39 329.05-25.24 328.38-23.49 327.71-21.73 326.44-20.46L326.44-20.46Q324.02-18.04 319.34-17.07L319.34-17.07 319.77-17.87 329.42-3.22 331.13-2.47 334.57-2.08 334.57 0 326.2 0 315.21-17.55 317.26-16.67 310.72-16.67 310.72-2.64 314.38-2.08 314.38 0 302.42 0 302.42-2.08 306.2-2.64 306.2-34.18 302.42-34.74 302.42-36.82 314.45-36.82Q326.15-36.82 328.39-31.23ZM314.7-33.86L310.72-33.86 310.72-19.31 314.33-19.31Q322.24-19.31 323.9-23.93L323.9-23.93Q324.41-25.32 324.41-26.94 324.41-28.56 323.95-29.86 323.49-31.15 322.39-32.03L322.39-32.03Q320.12-33.86 314.7-33.86L314.7-33.86ZM364.04-28.27L364.04-28.27Q364.04-26.37 363.36-24.98 362.69-23.58 361.69-22.58L361.69-22.58Q359.91-20.85 357.25-19.85L357.25-19.85Q361.54-19.02 363.55-17.29L363.55-17.29Q366.28-14.89 366.28-10.16L366.28-10.16Q366.28-5.91 363.01-3.1L363.01-3.1Q359.42 0 352.95 0L352.95 0 336.01 0 336.01-2.08 339.72-2.64 339.72-34.18 336.01-34.74 336.01-36.82 352.29-36.82Q358.05-36.82 361.13-34.47L361.13-34.47Q364.04-32.28 364.04-28.27ZM352.41-18.04L344.31-18.04 344.31-2.93 351.22-2.93Q359.32-2.93 361.03-7.35L361.03-7.35Q361.57-8.74 361.57-10.39 361.57-12.04 361-13.42 360.42-14.79 359.27-15.82L359.27-15.82Q356.78-18.04 352.41-18.04L352.41-18.04ZM351.73-33.86L344.31-33.86 344.31-20.7 351.27-20.7Q356.44-20.7 358.49-24.22L358.49-24.22Q359.27-25.54 359.27-27.59L359.27-27.59Q359.27-30.86 357.47-32.36 355.66-33.86 351.73-33.86L351.73-33.86ZM411.81-31.23L411.81-31.23Q412.47-29.54 412.47-27.39 412.47-25.24 411.8-23.49 411.12-21.73 409.86-20.46L409.86-20.46Q407.44-18.04 402.75-17.07L402.75-17.07 403.19-17.87 412.83-3.22 414.54-2.47 417.99-2.08 417.99 0 409.61 0 398.62-17.55 400.68-16.67 394.13-16.67 394.13-2.64 397.79-2.08 397.79 0 385.83 0 385.83-2.08 389.62-2.64 389.62-34.18 385.83-34.74 385.83-36.82 397.87-36.82Q409.56-36.82 411.81-31.23ZM398.11-33.86L394.13-33.86 394.13-19.31 397.75-19.31Q405.66-19.31 407.32-23.93L407.32-23.93Q407.83-25.32 407.83-26.94 407.83-28.56 407.36-29.86 406.9-31.15 405.8-32.03L405.8-32.03Q403.53-33.86 398.11-33.86L398.11-33.86ZM424.15-4.74Q421.77-7.2 420.53-10.56 419.3-13.92 419.3-17.35 419.3-20.78 419.98-23.41 420.67-26.05 421.88-28.22 423.09-30.4 424.78-32.1 426.48-33.81 428.51-34.99L428.51-34.99Q432.63-37.38 437.34-37.38 442.05-37.38 445.52-36 448.99-34.62 451.36-32.2L451.36-32.2Q456.17-27.29 456.17-19.31L456.17-19.31Q456.17-10.42 450.77-4.81L450.77-4.81Q448.28-2.22 444.97-0.83 441.66 0.56 437.57 0.56 433.49 0.56 430.01-0.85 426.53-2.27 424.15-4.74ZM427.72-29.93Q425.94-27.86 424.98-25.1 424.01-22.34 424.01-19.7 424.01-17.07 424.4-14.97 424.79-12.87 425.56-11 426.33-9.13 427.49-7.54 428.65-5.96 430.19-4.81L430.19-4.81Q433.46-2.37 437.9-2.37L437.9-2.37Q443.98-2.37 447.79-6.49L447.79-6.49Q451.53-10.55 451.53-17.07L451.53-17.07Q451.53-24.24 448.28-29L448.28-29Q444.57-34.45 437.44-34.45L437.44-34.45Q431.56-34.45 427.72-29.93L427.72-29.93ZM485.02 0L485.02-2.08 488.39-2.64 484.53-12.13 469.88-12.13 466.05-2.64 469.49-2.08 469.49 0 459.02 0 459.02-2.08 462.88-2.64 475.69-34.33 474.67-36.74 478.62-38.4 493.22-2.64 497.15-2.08 497.15 0 485.02 0ZM477.23-30.76L471.03-15.09 483.46-15.09 477.23-30.76ZM511.12-2.34L511.12-2.34Q512.92-2.34 514.4-2.7 515.88-3.05 516.95-3.81L516.95-3.81Q519.25-5.4 519.25-8.45L519.25-8.45Q519.25-11.04 517.56-12.7L517.56-12.7Q515.78-14.4 511.79-16.15 507.8-17.9 505.71-19.27 503.62-20.65 502.43-22.07L502.43-22.07Q500.25-24.56 500.25-28.1L500.25-28.1Q500.25-32.2 503.79-34.86L503.79-34.86Q507.09-37.38 511.78-37.38L511.78-37.38Q515.46-37.38 519.15-36.04L519.15-36.04Q520.69-35.42 521.93-34.69L521.93-34.69 521.08-28.17 519.03-28.17Q519.03-31.54 517.2-33.07 515.37-34.59 511.9-34.59L511.9-34.59Q507.11-34.59 505.36-31.47L505.36-31.47Q504.79-30.44 504.79-29.17 504.79-27.91 505.16-26.89 505.53-25.88 506.58-24.9L506.58-24.9Q508.63-22.92 514.29-20.56L514.29-20.56Q522.2-17.19 523.52-12.6L523.52-12.6Q523.91-11.16 523.91-9.53 523.91-7.91 523.36-6.46 522.81-5 521.86-3.87 520.91-2.73 519.65-1.9 518.39-1.07 516.98-0.54L516.98-0.54Q510.7 1.9 503.79-0.93L503.79-0.93Q501.28-1.98 499.35-3.49L499.35-3.49 500.38-10.5 502.45-10.5Q502.45-5.59 505.55-3.66L505.55-3.66Q507.67-2.34 511.12-2.34ZM529.23-36.82L560.33-36.82 560.92-28.98 558.72-28.98 557.48-33.86 547.05-33.86 547.05-2.64 552.42-2.08 552.42 0 537.16 0 537.16-2.08 542.49-2.64 542.49-33.86 532.11-33.86 530.79-28.98 528.64-28.98 529.23-36.82ZM577.93-2.34L577.93-2.34Q579.74-2.34 581.22-2.7 582.69-3.05 583.77-3.81L583.77-3.81Q586.06-5.4 586.06-8.45L586.06-8.45Q586.06-11.04 584.38-12.7L584.38-12.7Q582.6-14.4 578.6-16.15 574.61-17.9 572.53-19.27 570.44-20.65 569.24-22.07L569.24-22.07Q567.07-24.56 567.07-28.1L567.07-28.1Q567.07-32.2 570.61-34.86L570.61-34.86Q573.91-37.38 578.59-37.38L578.59-37.38Q582.28-37.38 585.97-36.04L585.97-36.04Q587.5-35.42 588.75-34.69L588.75-34.69 587.89-28.17 585.84-28.17Q585.84-31.54 584.01-33.07 582.18-34.59 578.71-34.59L578.71-34.59Q573.93-34.59 572.17-31.47L572.17-31.47Q571.61-30.44 571.61-29.17 571.61-27.91 571.98-26.89 572.34-25.88 573.39-24.9L573.39-24.9Q575.44-22.92 581.11-20.56L581.11-20.56Q589.02-17.19 590.34-12.6L590.34-12.6Q590.73-11.16 590.73-9.53 590.73-7.91 590.18-6.46 589.63-5 588.68-3.87 587.72-2.73 586.47-1.9 585.21-1.07 583.79-0.54L583.79-0.54Q577.52 1.9 570.61-0.93L570.61-0.93Q568.09-1.98 566.17-3.49L566.17-3.49 567.19-10.5 569.27-10.5Q569.27-5.59 572.37-3.66L572.37-3.66Q574.49-2.34 577.93-2.34Z" opacity="1" transform="matrix(1,0,0,1,0,0)" fill="#3c2c32" class="undefined-text-0" data-fill-palette-color="primary" id="text-0"></path></svg></g></svg></g><g transform="matrix(1,0,0,1,0,34.16211011107158)"><svg viewBox="0 0 150.47296459535312 16.20711108454407" height="16.20711108454407" width="150.47296459535312"><g transform="matrix(1,0,0,1,0,0)"><svg width="150.47296459535312" viewBox="2 -36.650001525878906 348.9100036621094 37.45000076293945" height="16.20711108454407" data-palette-color="#f08756"><path d="M25.95-31.85Q29-29.7 30.7-25.95 32.4-22.2 32.4-17.45L32.4-17.45Q32.4-12.7 30.7-8.8 29-4.9 25.95-2.7L25.95-2.7Q24-1.3 21.48-0.65 18.95 0 15.3 0L15.3 0 2 0 2-0.4 6.1-0.8 6.1-33.7 2-34.1 2-34.5 15.3-34.5Q22.1-34.5 25.95-31.85L25.95-31.85ZM24.15-3.55Q25.75-5.6 26.68-9.38 27.6-13.15 27.6-17.7L27.6-17.7Q27.6-22.15 26.73-25.55 25.85-28.95 24.15-30.95L24.15-30.95Q22.75-32.6 20.7-33.25 18.65-33.9 14.85-33.9L14.85-33.9 9.95-33.9 9.95-0.6 14.85-0.6Q18.85-0.6 20.85-1.25 22.85-1.9 24.15-3.55L24.15-3.55ZM41.1 0.35Q39.2 0.35 37.97-0.98 36.75-2.3 36.75-4.4L36.75-4.4Q36.75-6.9 39.02-8.4 41.3-9.9 46.75-11L46.75-11 46.75-15.55Q46.75-18.45 46.1-19.58 45.45-20.7 43.85-20.7L43.85-20.7Q42.3-20.7 41.35-19.88 40.4-19.05 40.4-17.65L40.4-17.65 40.45-16.3Q40.45-15.05 39.97-14.33 39.5-13.6 38.65-13.6L38.65-13.6Q37.9-13.6 37.42-14.1 36.95-14.6 36.95-15.4L36.95-15.4Q36.95-16.6 38.12-18.03 39.3-19.45 41.15-20.4L41.15-20.4Q43.4-21.65 45.8-21.65L45.8-21.65Q47.2-21.65 48.17-21.1 49.15-20.55 49.6-19.55L49.6-19.55Q49.85-18.9 49.92-17.95 50-17 50-14.3L50-14.3 50-4.75Q50-2.95 50.35-2.27 50.7-1.6 51.6-1.6L51.6-1.6Q52.95-1.6 53.6-2.55L53.6-2.55 53.8-2.45Q53.2-1.2 52.2-0.53 51.2 0.15 50.05 0.15L50.05 0.15Q48.75 0.15 47.9-0.63 47.05-1.4 46.95-2.7L46.95-2.7 46.8-2.75Q45.65-1.3 44.15-0.48 42.65 0.35 41.1 0.35L41.1 0.35ZM43.25-1.55Q44.3-1.55 45.22-2.02 46.15-2.5 46.75-3.4L46.75-3.4 46.75-10.45Q44.15-9.8 42.72-9.15 41.3-8.5 40.7-7.6 40.1-6.7 40.1-5.35L40.1-5.35Q40.1-3.6 40.95-2.58 41.8-1.55 43.25-1.55L43.25-1.55ZM83-0.8L86.1-0.4 86.1 0 76.7 0 76.7-0.4 79.75-0.8 79.75-13.55Q79.75-15.5 79.65-16.45 79.55-17.4 79.3-18.05L79.3-18.05Q78.55-19.85 76.3-19.85L76.3-19.85Q73.9-19.85 72.25-17.65L72.25-17.65Q72.35-15.95 72.35-13.55L72.35-13.55 72.35-0.8 75.45-0.4 75.45 0 66 0 66-0.4 69.1-0.8 69.1-13.55Q69.1-15.5 69-16.45 68.9-17.4 68.65-18.05L68.65-18.05Q67.9-19.85 65.65-19.85L65.65-19.85Q63.3-19.85 61.7-17.8L61.7-17.8 61.7-0.8 64.75-0.4 64.75 0 55.45 0 55.45-0.4 58.45-0.8 58.45-18.3 55.5-19.4 55.5-19.75 61.15-21.7 61.55-21.7 61.55-18.35Q64.5-21.7 67.7-21.7L67.7-21.7Q70.6-21.7 71.8-19.25L71.8-19.25Q72-18.85 72.15-18.25L72.15-18.25Q75.2-21.7 78.35-21.7L78.35-21.7Q81.25-21.7 82.45-19.25L82.45-19.25Q82.8-18.6 82.9-17.43 83-16.25 83-13.55L83-13.55 83-0.8ZM106.04-0.8L109.04-0.4 109.04 0 99.74 0 99.74-0.4 102.79-0.8 102.79-13.55Q102.79-15.5 102.69-16.45 102.59-17.4 102.29-18.05L102.29-18.05Q101.89-18.9 100.97-19.38 100.04-19.85 98.84-19.85L98.84-19.85Q96.29-19.85 94.29-17.7L94.29-17.7 94.29-0.8 97.34-0.4 97.34 0 87.99 0 87.99-0.4 91.04-0.8 91.04-18.05 88.09-19.15 88.09-19.5 93.74-21.45 94.14-21.45 94.14-18.3Q97.34-21.7 100.84-21.7L100.84-21.7Q102.39-21.7 103.67-21.03 104.94-20.35 105.49-19.25L105.49-19.25Q105.84-18.6 105.94-17.48 106.04-16.35 106.04-13.55L106.04-13.55 106.04-0.8ZM147.24-34.5L148.04-24.55 147.64-24.5 144.64-32.05Q144.19-33.2 143.66-33.55 143.14-33.9 141.94-33.9L141.94-33.9 131.79-33.9 131.79-18.55 139.04-18.55Q140.24-18.55 140.74-18.95 141.24-19.35 141.44-20.5L141.44-20.5 142.29-24.55 142.89-24.55 142.89-11.75 142.29-11.75 141.44-15.8Q141.24-16.95 140.74-17.35 140.24-17.75 139.04-17.75L139.04-17.75 131.79-17.75 131.79-0.8 136.69-0.4 136.69 0 123.84 0 123.84-0.4 127.94-0.8 127.94-33.7 123.84-34.1 123.84-34.5 147.24-34.5ZM152.79-28.9Q152.79-29.95 153.46-30.63 154.14-31.3 155.19-31.3L155.19-31.3Q156.24-31.3 156.91-30.63 157.59-29.95 157.59-28.9L157.59-28.9Q157.59-27.85 156.91-27.18 156.24-26.5 155.19-26.5L155.19-26.5Q154.14-26.5 153.46-27.18 152.79-27.85 152.79-28.9L152.79-28.9ZM157.09-0.8L157.09-21.7 156.69-21.7 150.89-19.75 150.89-19.4 153.84-18.3 153.84-0.8 150.79-0.4 150.79 0 160.14 0 160.14-0.4 157.09-0.8ZM180.28-0.8L183.28-0.4 183.28 0 173.98 0 173.98-0.4 177.03-0.8 177.03-13.55Q177.03-15.5 176.93-16.45 176.83-17.4 176.53-18.05L176.53-18.05Q176.13-18.9 175.21-19.38 174.28-19.85 173.08-19.85L173.08-19.85Q170.53-19.85 168.53-17.7L168.53-17.7 168.53-0.8 171.58-0.4 171.58 0 162.23 0 162.23-0.4 165.28-0.8 165.28-18.05 162.33-19.15 162.33-19.5 167.98-21.45 168.38-21.45 168.38-18.3Q171.58-21.7 175.08-21.7L175.08-21.7Q176.63-21.7 177.91-21.03 179.18-20.35 179.73-19.25L179.73-19.25Q180.08-18.6 180.18-17.48 180.28-16.35 180.28-13.55L180.28-13.55 180.28-0.8ZM202.58-5.1L203.03-5.7 203.23-5.6 203.03-5.05Q202.03-2.4 200.06-0.95 198.08 0.5 195.33 0.5L195.33 0.5Q192.63 0.5 190.53-0.9 188.43-2.3 187.26-4.8 186.08-7.3 186.08-10.55L186.08-10.55Q186.08-13.8 187.33-16.35 188.58-18.9 190.88-20.3 193.18-21.7 196.13-21.7L196.13-21.7Q199.63-21.7 201.51-19.63 203.38-17.55 203.43-13.6L203.43-13.6 203.13-13.35 189.63-13.35Q189.53-12.05 189.53-11.3L189.53-11.3Q189.53-6.75 191.38-4.38 193.23-2 196.53-2L196.53-2Q198.23-2 199.81-2.78 201.38-3.55 202.58-5.1L202.58-5.1ZM195.58-21.15Q193.23-21.15 191.68-19.2 190.13-17.25 189.68-13.9L189.68-13.9 199.38-14.25Q199.53-14.85 199.53-16.25L199.53-16.25Q199.53-18.95 198.51-20.05 197.48-21.15 195.58-21.15L195.58-21.15ZM243.53-3.4Q242.08-1.8 239.95-0.85 237.83 0.1 235.58 0.1L235.58 0.1Q230.33 0.1 227.48-4.42 224.63-8.95 224.63-17.25L224.63-17.25Q224.63-25.6 227.48-30.15 230.33-34.7 235.63-34.7L235.63-34.7Q238.53-34.7 240.93-33.38 243.33-32.05 244.83-29.6L244.83-29.6Q246.33-27.1 247.03-23.25L247.03-23.25 247.73-23.45 247.23-34.7 246.58-34.7 245.38-32.3Q242.48-33.85 240.1-34.58 237.73-35.3 235.48-35.3L235.48-35.3Q231.18-35.3 227.58-32.9 223.98-30.5 221.9-26.35 219.83-22.2 219.83-17.25L219.83-17.25Q219.83-12.25 221.9-8.13 223.98-4 227.6-1.6 231.23 0.8 235.58 0.8L235.58 0.8Q238.03 0.8 240.65-0.15 243.28-1.1 245.53-2.75L245.53-2.75 247.23 0 247.88 0 247.88-11.5 247.23-11.6Q245.98-6.15 243.53-3.4L243.53-3.4ZM262.47-21.7Q265.37-21.7 267.62-20.3 269.87-18.9 271.12-16.38 272.37-13.85 272.37-10.6L272.37-10.6Q272.37-7.35 271.12-4.83 269.87-2.3 267.62-0.9 265.37 0.5 262.47 0.5L262.47 0.5Q259.57 0.5 257.32-0.9 255.07-2.3 253.82-4.83 252.57-7.35 252.57-10.6L252.57-10.6Q252.57-13.85 253.82-16.38 255.07-18.9 257.32-20.3 259.57-21.7 262.47-21.7L262.47-21.7ZM256.27-10.6Q256.27-5.6 257.92-2.8 259.57 0 262.47 0L262.47 0Q265.37 0 267.02-2.8 268.67-5.6 268.67-10.6L268.67-10.6Q268.67-15.6 267.02-18.4 265.37-21.2 262.47-21.2L262.47-21.2Q259.57-21.2 257.92-18.4 256.27-15.6 256.27-10.6L256.27-10.6ZM286.72-36.65Q288.67-36.65 290.12-35.77 291.57-34.9 291.57-33.7L291.57-33.7Q291.57-32.95 291.02-32.43 290.47-31.9 289.72-31.9L289.72-31.9Q288.92-31.9 288.45-32.4 287.97-32.9 287.77-33.95L287.77-33.95Q287.47-35.2 287.1-35.6 286.72-36 285.87-36L285.87-36Q283.62-36 282.57-33.4L282.57-33.4Q282.17-32.35 282.02-30.98 281.87-29.6 281.87-26.85L281.87-26.85 281.87-21.2 286.52-21.2 286.27-20.4 281.87-20.4 281.87-0.9 286.22-0.4 286.22 0 275.57 0 275.57-0.4 278.62-0.8 278.62-20.4 275.27-20.4 275.52-21.2 278.62-21.2 278.62-24.1Q278.62-27.75 278.75-29.2 278.87-30.65 279.22-31.6L279.22-31.6Q280.07-33.8 282.17-35.23 284.27-36.65 286.72-36.65L286.72-36.65ZM299.87-36.65Q301.82-36.65 303.27-35.77 304.72-34.9 304.72-33.7L304.72-33.7Q304.72-32.95 304.17-32.43 303.62-31.9 302.87-31.9L302.87-31.9Q302.07-31.9 301.59-32.4 301.12-32.9 300.92-33.95L300.92-33.95Q300.62-35.2 300.24-35.6 299.87-36 299.02-36L299.02-36Q296.77-36 295.72-33.4L295.72-33.4Q295.32-32.35 295.17-30.98 295.02-29.6 295.02-26.85L295.02-26.85 295.02-21.2 299.67-21.2 299.42-20.4 295.02-20.4 295.02-0.9 299.37-0.4 299.37 0 288.72 0 288.72-0.4 291.77-0.8 291.77-20.4 288.42-20.4 288.67-21.2 291.77-21.2 291.77-24.1Q291.77-27.75 291.89-29.2 292.02-30.65 292.37-31.6L292.37-31.6Q293.22-33.8 295.32-35.23 297.42-36.65 299.87-36.65L299.87-36.65ZM318.72-5.1L319.17-5.7 319.37-5.6 319.17-5.05Q318.17-2.4 316.19-0.95 314.22 0.5 311.47 0.5L311.47 0.5Q308.77 0.5 306.67-0.9 304.57-2.3 303.39-4.8 302.22-7.3 302.22-10.55L302.22-10.55Q302.22-13.8 303.47-16.35 304.72-18.9 307.02-20.3 309.32-21.7 312.27-21.7L312.27-21.7Q315.77-21.7 317.64-19.63 319.52-17.55 319.57-13.6L319.57-13.6 319.27-13.35 305.77-13.35Q305.67-12.05 305.67-11.3L305.67-11.3Q305.67-6.75 307.52-4.38 309.37-2 312.67-2L312.67-2Q314.37-2 315.94-2.78 317.52-3.55 318.72-5.1L318.72-5.1ZM311.72-21.15Q309.37-21.15 307.82-19.2 306.27-17.25 305.82-13.9L305.82-13.9 315.52-14.25Q315.67-14.85 315.67-16.25L315.67-16.25Q315.67-18.95 314.64-20.05 313.62-21.15 311.72-21.15L311.72-21.15ZM339.86-5.1L340.31-5.7 340.51-5.6 340.31-5.05Q339.31-2.4 337.34-0.95 335.36 0.5 332.61 0.5L332.61 0.5Q329.91 0.5 327.81-0.9 325.71-2.3 324.54-4.8 323.36-7.3 323.36-10.55L323.36-10.55Q323.36-13.8 324.61-16.35 325.86-18.9 328.16-20.3 330.46-21.7 333.41-21.7L333.41-21.7Q336.91-21.7 338.79-19.63 340.66-17.55 340.71-13.6L340.71-13.6 340.41-13.35 326.91-13.35Q326.81-12.05 326.81-11.3L326.81-11.3Q326.81-6.75 328.66-4.38 330.51-2 333.81-2L333.81-2Q335.51-2 337.09-2.78 338.66-3.55 339.86-5.1L339.86-5.1ZM332.86-21.15Q330.51-21.15 328.96-19.2 327.41-17.25 326.96-13.9L326.96-13.9 336.66-14.25Q336.81-14.85 336.81-16.25L336.81-16.25Q336.81-18.95 335.79-20.05 334.76-21.15 332.86-21.15L332.86-21.15ZM348.26-8.5L348.01-13.5Q347.71-20 347.41-23.05L347.41-23.05Q346.56-31.55 346.56-33.15L346.56-33.15Q346.56-34.3 347.08-34.95 347.61-35.6 348.51-35.6L348.51-35.6Q349.46-35.6 349.96-35 350.46-34.4 350.46-33.3L350.46-33.3Q350.46-32.55 350.11-28.8L350.11-28.8Q349.71-24.7 349.61-23.25L349.61-23.25Q349.21-18.5 348.76-8.5L348.76-8.5 348.26-8.5ZM346.11-1.9Q346.11-2.95 346.78-3.63 347.46-4.3 348.51-4.3L348.51-4.3Q349.56-4.3 350.24-3.63 350.91-2.95 350.91-1.9L350.91-1.9Q350.91-0.85 350.24-0.18 349.56 0.5 348.51 0.5L348.51 0.5Q347.46 0.5 346.78-0.18 346.11-0.85 346.11-1.9L346.11-1.9Z" opacity="1" transform="matrix(1,0,0,1,0,0)" fill="#f08756" class="undefined-text-1" data-fill-palette-color="secondary" id="text-1"></path></svg></g></svg></g></svg></g></svg></g><g><svg viewBox="0 0 46.15331738154262 65.93331054506089" height="65.93331054506089" width="46.15331738154262"><g><svg version="1.1" xmlns="http://www.w3.org/2000/svg" xmlns:xlink="http://www.w3.org/1999/xlink" x="0" y="0" viewBox="0 0 70 100" enable-background="new 0 0 70 100" xml:space="preserve" height="65.93331054506089" width="46.15331738154262" class="icon-icon-0" data-fill-palette-color="accent" id="icon-0"><path d="M35 19L35 19H1.633l13.675 81h19.691H35h19.691l13.675-81H35zM13.455 65L8.56 36l52.88 0-4.896 29H13.455z" fill="#020100" data-fill-palette-color="accent"></path><path d="M68 9h-6l-2-9H35 10L8 9H2l-2 6h35 35L68 9zM34.857 11.475c-4.419 0-8-1.791-8-4s3.581-4 8-4c4.416 0 8 1.791 8 4S39.273 11.475 34.857 11.475z" fill="#020100" data-fill-palette-color="accent"></path></svg></g></svg></g></svg></g></svg><rect width="395.52" height="57.971334438387714" fill="none" stroke="none" visibility="hidden"></rect></g></svg></g></svg>